<svg xmlns="http://www.w3.org/2000/svg" xmlns:xlink="http://www.w3.org/1999/xlink" width="489.5" height="311.25" viewBox="0 0 489.5 311.25" fill="none">
<g filter="url(#filter_28MWZvZIMKX3WPvoG5yIX)">
<path    stroke="rgba(105, 133, 221, 1)" stroke-width="1.5" stroke-linejoin="round" stroke-linecap="round"  d="M70.25 304.5L23.75 304.5L4.75 285L4.75 201.5">
</path>
<path    stroke="rgba(105, 133, 221, 1)" stroke-width="1.5" stroke-linejoin="round" stroke-linecap="round"  d="M418.75 304.5L465.25 304.5L484.25 285L484.25 201.5">
</path>
<path d="M4.75 273.5L8.75 270.5L8.75 238.5L4.75 235.5L4.75 273.5Z"   fill="#74AFF7" >
</path>
<path d="M484.25 273.5L480.25 270.5L480.25 238.5L484.25 235.5L484.25 273.5Z"   fill="#74AFF7" >
</path>
<path d="M4.75 299.5L9.75 304.5L15.75 304.5L4.75 293.5L4.75 299.5Z"   fill="#74AFF7" >
</path>
<path d="M484.25 299.5L479.25 304.5L473.25 304.5L484.25 293.5L484.25 299.5Z"   fill="#74AFF7" >
</path>
<path d="M10.75 4.5L5.75 9.5L5.75 15.5L16.75 4.5L10.75 4.5Z"   fill="#74AFF7" >
</path>
<path d="M484.75 9.5L479.75 4.5L473.75 4.5L484.75 15.5L484.75 9.5Z"   fill="#74AFF7" >
</path>
<path    stroke="rgba(105, 133, 221, 1)" stroke-width="1.5" stroke-linejoin="round" stroke-linecap="round"  d="M5.25 84L5.25 23L24.25 4L465.75 4L484.75 23L484.75 84">
</path>
<path    stroke="rgba(105, 133, 221, 1)" stroke-width="1.5" stroke-linejoin="round" stroke-linecap="round"  d="M4.75 93L9.25 97.5">
</path>
<path    stroke="rgba(105, 133, 221, 1)" stroke-width="1.5" stroke-linejoin="round" stroke-linecap="round"  d="M479.75 93L484.25 97.5">
</path>
<path    stroke="rgba(105, 133, 221, 1)" stroke-width="1.5" stroke-linejoin="round" stroke-linecap="round"  d="M4.75 102.5L9.25 107">
</path>
<path    stroke="rgba(105, 133, 221, 1)" stroke-width="1.5" stroke-linejoin="round" stroke-linecap="round"  d="M479.75 102.5L484.25 107">
</path>
<path    stroke="rgba(105, 133, 221, 1)" stroke-width="1.5" stroke-linejoin="round" stroke-linecap="round"  d="M4.75 112L9.25 116.5">
</path>
<path    stroke="rgba(105, 133, 221, 1)" stroke-width="1.5" stroke-linejoin="round" stroke-linecap="round"  d="M479.75 112L484.25 116.5">
</path>
<path    stroke="rgba(105, 133, 221, 1)" stroke-width="1.5" stroke-linejoin="round" stroke-linecap="round"  d="M4.75 121.5L9.25 126">
</path>
<path    stroke="rgba(105, 133, 221, 1)" stroke-width="1.5" stroke-linejoin="round" stroke-linecap="round"  d="M479.75 121.5L484.25 126">
</path>
<path    stroke="rgba(105, 133, 221, 1)" stroke-width="1.5" stroke-linejoin="round" stroke-linecap="round"  d="M4.75 131L9.25 135.5">
</path>
<path    stroke="rgba(105, 133, 221, 1)" stroke-width="1.5" stroke-linejoin="round" stroke-linecap="round"  d="M479.75 131L484.25 135.5">
</path>
<path    stroke="rgba(105, 133, 221, 1)" stroke-width="1.5" stroke-linejoin="round" stroke-linecap="round"  d="M4.75 140.5L9.25 145">
</path>
<path    stroke="rgba(105, 133, 221, 1)" stroke-width="1.5" stroke-linejoin="round" stroke-linecap="round"  d="M479.75 140.5L484.25 145">
</path>
<path    stroke="rgba(105, 133, 221, 1)" stroke-width="1.5" stroke-linejoin="round" stroke-linecap="round"  d="M4.75 150L9.25 154.5">
</path>
<path    stroke="rgba(105, 133, 221, 1)" stroke-width="1.5" stroke-linejoin="round" stroke-linecap="round"  d="M479.75 150L484.25 154.5">
</path>
<path    stroke="rgba(105, 133, 221, 1)" stroke-width="1.5" stroke-linejoin="round" stroke-linecap="round"  d="M4.75 159.5L9.25 164">
</path>
<path    stroke="rgba(105, 133, 221, 1)" stroke-width="1.5" stroke-linejoin="round" stroke-linecap="round"  d="M479.75 159.5L484.25 164">
</path>
<path    stroke="rgba(105, 133, 221, 1)" stroke-width="1.5" stroke-linejoin="round" stroke-linecap="round"  d="M4.75 169L9.25 173.5">
</path>
<path    stroke="rgba(105, 133, 221, 1)" stroke-width="1.5" stroke-linejoin="round" stroke-linecap="round"  d="M479.75 169L484.25 173.5">
</path>
<path    stroke="rgba(105, 133, 221, 1)" stroke-width="1.5" stroke-linejoin="round" stroke-linecap="round"  d="M4.75 178.5L9.25 183">
</path>
<path    stroke="rgba(105, 133, 221, 1)" stroke-width="1.5" stroke-linejoin="round" stroke-linecap="round"  d="M479.75 178.5L484.25 183">
</path>
<path    stroke="rgba(105, 133, 221, 1)" stroke-width="1.5" stroke-linejoin="round" stroke-linecap="round"  d="M4.75 188L9.25 192.5">
</path>
<path    stroke="rgba(105, 133, 221, 1)" stroke-width="1.5" stroke-linejoin="round" stroke-linecap="round"  d="M479.75 188L484.25 192.5">
</path>
<path fill-rule="evenodd"  fill="url(#linear_border_KVQ9-on38I4azH0_IAnP1_0)"  d="M86.25 305.25C85.8358 305.25 85.5 304.914 85.5 304.5C85.5 304.086 85.8358 303.75 86.25 303.75L87.75 303.75L87.75 305.25L86.25 305.25ZM90.75 303.75L93.75 303.75L93.75 305.25L90.75 305.25L90.75 303.75ZM96.75 303.75L99.75 303.75L99.75 305.25L96.75 305.25L96.75 303.75ZM102.75 303.75L105.75 303.75L105.75 305.25L102.75 305.25L102.75 303.75ZM108.75 303.75L111.75 303.75L111.75 305.25L108.75 305.25L108.75 303.75ZM114.75 303.75L117.75 303.75L117.75 305.25L114.75 305.25L114.75 303.75ZM120.75 303.75L123.75 303.75L123.75 305.25L120.75 305.25L120.75 303.75ZM126.75 303.75L129.75 303.75L129.75 305.25L126.75 305.25L126.75 303.75ZM132.75 303.75L135.75 303.75L135.75 305.25L132.75 305.25L132.75 303.75ZM138.75 303.75L141.75 303.75L141.75 305.25L138.75 305.25L138.75 303.75ZM144.75 303.75L147.75 303.75L147.75 305.25L144.75 305.25L144.75 303.75ZM150.75 303.75L153.75 303.75L153.75 305.25L150.75 305.25L150.75 303.75ZM156.75 303.75L159.75 303.75L159.75 305.25L156.75 305.25L156.75 303.75ZM162.75 303.75L165.75 303.75L165.75 305.25L162.75 305.25L162.75 303.75ZM168.75 303.75L171.75 303.75L171.75 305.25L168.75 305.25L168.75 303.75ZM174.75 303.75L177.75 303.75L177.75 305.25L174.75 305.25L174.75 303.75ZM180.75 303.75L183.75 303.75L183.75 305.25L180.75 305.25L180.75 303.75ZM186.75 303.75L189.75 303.75L189.75 305.25L186.75 305.25L186.75 303.75ZM192.75 303.75L195.75 303.75L195.75 305.25L192.75 305.25L192.75 303.75ZM198.75 303.75L201.75 303.75L201.75 305.25L198.75 305.25L198.75 303.75ZM204.75 303.75L207.75 303.75L207.75 305.25L204.75 305.25L204.75 303.75ZM210.75 303.75L213.75 303.75L213.75 305.25L210.75 305.25L210.75 303.75ZM216.75 303.75L219.75 303.75L219.75 305.25L216.75 305.25L216.75 303.75ZM222.75 303.75L225.75 303.75L225.75 305.25L222.75 305.25L222.75 303.75ZM228.75 303.75L231.75 303.75L231.75 305.25L228.75 305.25L228.75 303.75ZM234.75 303.75L237.75 303.75L237.75 305.25L234.75 305.25L234.75 303.75ZM240.75 303.75L243.75 303.75L243.75 305.25L240.75 305.25L240.75 303.75ZM246.75 303.75L249.75 303.75L249.75 305.25L246.75 305.25L246.75 303.75ZM252.75 303.75L255.75 303.75L255.75 305.25L252.75 305.25L252.75 303.75ZM258.75 303.75L261.75 303.75L261.75 305.25L258.75 305.25L258.75 303.75ZM264.75 303.75L267.75 303.75L267.75 305.25L264.75 305.25L264.75 303.75ZM270.75 303.75L273.75 303.75L273.75 305.25L270.75 305.25L270.75 303.75ZM276.75 303.75L279.75 303.75L279.75 305.25L276.75 305.25L276.75 303.75ZM282.75 303.75L285.75 303.75L285.75 305.25L282.75 305.25L282.75 303.75ZM288.75 303.75L291.75 303.75L291.75 305.25L288.75 305.25L288.75 303.75ZM294.75 303.75L297.75 303.75L297.75 305.25L294.75 305.25L294.75 303.75ZM300.75 303.75L303.75 303.75L303.75 305.25L300.75 305.25L300.75 303.75ZM306.75 303.75L309.75 303.75L309.75 305.25L306.75 305.25L306.75 303.75ZM312.75 303.75L315.75 303.75L315.75 305.25L312.75 305.25L312.75 303.75ZM318.75 303.75L321.75 303.75L321.75 305.25L318.75 305.25L318.75 303.75ZM324.75 303.75L327.75 303.75L327.75 305.25L324.75 305.25L324.75 303.75ZM330.75 303.75L333.75 303.75L333.75 305.25L330.75 305.25L330.75 303.75ZM336.75 303.75L339.75 303.75L339.75 305.25L336.75 305.25L336.75 303.75ZM342.75 303.75L345.75 303.75L345.75 305.25L342.75 305.25L342.75 303.75ZM348.75 303.75L351.75 303.75L351.75 305.25L348.75 305.25L348.75 303.75ZM354.75 303.75L357.75 303.75L357.75 305.25L354.75 305.25L354.75 303.75ZM360.75 303.75L363.75 303.75L363.75 305.25L360.75 305.25L360.75 303.75ZM366.75 303.75L369.75 303.75L369.75 305.25L366.75 305.25L366.75 303.75ZM372.75 303.75L375.75 303.75L375.75 305.25L372.75 305.25L372.75 303.75ZM378.75 303.75L381.75 303.75L381.75 305.25L378.75 305.25L378.75 303.75ZM384.75 303.75L387.75 303.75L387.75 305.25L384.75 305.25L384.75 303.75ZM390.75 303.75L393.75 303.75L393.75 305.25L390.75 305.25L390.75 303.75ZM396.75 303.75L399.75 303.75L399.75 305.25L396.75 305.25L396.75 303.75ZM402.75 305.25L402.75 303.75L404.25 303.75C404.664 303.75 405 304.086 405 304.5C405 304.914 404.664 305.25 404.25 305.25L402.75 305.25Z">
</path>
</g>
<defs>
<linearGradient id="linear_border_KVQ9-on38I4azH0_IAnP1_0" x1="86.25" y1="304.50048828125" x2="404.25" y2="304.50048828125" gradientUnits="userSpaceOnUse">
<stop offset="0" stop-color="#0D7AFF" stop-opacity="0" />
<stop offset="0.5139" stop-color="#0C79FF"  />
<stop offset="1" stop-color="#0C79FF" stop-opacity="0" />
</linearGradient>
<filter id="filter_28MWZvZIMKX3WPvoG5yIX" x="0" y="0" width="488.75" height="308.5009765625" filterUnits="userSpaceOnUse" color-interpolation-filters="sRGB">
<feFlood flood-opacity="0" result="feFloodId_28MWZvZIMKX3WPvoG5yIX"/>
<feColorMatrix in="SourceAlpha" type="matrix" values="0 0 0 0 0 0 0 0 0 0 0 0 0 0 0 0 0 0 127 0" result="hardAlpha_28MWZvZIMKX3WPvoG5yIX"/>
<feOffset dx="0" dy="2"/>
<feGaussianBlur stdDeviation="2"/>
<feComposite in2="hardAlpha_28MWZvZIMKX3WPvoG5yIX" operator="out"/>
<feColorMatrix type="matrix" values="0 0 0 0 0 0 0 0 0 0 0 0 0 0 0 0 0 0 0.25 0"/>
<feBlend mode="normal" in2="feFloodId_28MWZvZIMKX3WPvoG5yIX" result="dropShadow_1_28MWZvZIMKX3WPvoG5yIX"/>
<feBlend mode="normal" in="SourceGraphic" in2="dropShadow_1_28MWZvZIMKX3WPvoG5yIX" result="shape_28MWZvZIMKX3WPvoG5yIX"/>
<feGaussianBlur result="gaussian_blur_28MWZvZIMKX3WPvoG5yIX" stdDeviation="2"/>
</filter>
</defs>
</svg>
