<svg xmlns="http://www.w3.org/2000/svg" xmlns:xlink="http://www.w3.org/1999/xlink" width="1921.404296875" height="104.5" viewBox="0 0 1921.404296875 104.5" fill="none">
<path     fill="url(#linear_fill_1HaBhzHAIQPxb090_hygp_0)"  d="M721.349 94.5L732.9 80.729C830.01 80.729 1183.66 80.729 1183.66 80.729L1194.78 94.5L1219.81 94.5L1252.89 53.4032L1273.64 53.4032L1317.7 0.5L604.702 0.5L646.983 53.4032L666.804 53.4032L698.747 94.5L721.349 94.5Z">
</path>
<path fill-rule="evenodd"  fill="url(#linear_border_1HaBhzHAIQPxb090_hygp_0)"  d="M666.804 53.4032L698.747 94.5L721.349 94.5L732.9 80.729L1183.66 80.729L1194.78 94.5L1219.81 94.5L1252.89 53.4032L1273.64 53.4032L1314.37 4.5L1317.7 0.5L604.702 0.5L646.983 53.4032L666.804 53.4032ZM648.907 49.4032L668.762 49.4032L700.704 90.5L719.483 90.5L731.034 76.729L1185.57 76.729L1196.69 90.5L1217.89 90.5L1250.98 49.4032L1271.76 49.4032L1309.16 4.5L613.02 4.5L648.907 49.4032Z">
</path>
<path     fill="#1561BA"  d="M754.702 88.5L1166.7 88.5C1170.02 88.5 1172.7 91.1863 1172.7 94.5L1172.7 94.5L748.702 94.5L748.702 94.5C748.702 91.1863 751.388 88.5 754.702 88.5Z">
</path>
<path d="M1.53027 0.5L1.53027 23.498L333.883 23.498L368.857 60.5L631.702 60.5L631.702 50.972L593.198 0.5L1.53027 0.5Z"   fill="url(#linear_fill_E1oHZTFAQIbPPsNHZSpYU)" >
</path>
<path d="M308.702 20.5L308.702 38.5L590.702 38.5L578.266 20.5L308.702 20.5Z"   fill="url(#linear_fill_KzJ8LOa-xXEpjP4HRpM23)" >
</path>
<path    stroke="url(#linear_border_SpwRxF0gHQZU-qaV3ReqQ_0)" stroke-width="3"    d="M619.702 39.1479L590.956 1.5L1.5 1.5">
</path>
<path    stroke="url(#linear_border_4TradrjRBJUQs5M3ITR-b_0)" stroke-width="3"    d="M629.349 60.5L366.349 60">
</path>
<path    stroke="rgba(5, 39, 79, 1)" stroke-width="3"    d="M610.091 49.6919L543.091 50">
</path>
<path    stroke="rgba(24, 44, 79, 1)" stroke-width="3"    d="M519.952 49.6919L463.952 50">
</path>
<path    stroke="url(#linear_border_NDZkd1huxb8lQ2-i4sOBR_0)" stroke-width="3"    d="M439.521 49.6919L358.521 50">
</path>
<path d="M575.131 34L570.202 25.9582L561.202 25.9582L566.132 34L575.131 34Z"   fill="#1561BA" >
</path>
<path d="M560.702 34L555.773 25.9582L546.773 25.9582L551.703 34L560.702 34Z"   fill="#1561BA" >
</path>
<path d="M546.702 34L541.773 25.9582L532.773 25.9582L537.703 34L546.702 34Z"   fill="#1561BA" >
</path>
<path d="M532.702 34L527.773 25.9582L518.773 25.9582L523.703 34L532.702 34Z"   fill="#1561BA" >
</path>
<path     fill="url(#linear_fill_hPc7A8JadofKgXALHvHG7_0)"  d="M3.70215 93.7L334.876 93.7L368.874 58.6L334.876 23.5L3.70215 23.5L3.70215 93.7Z">
</path>
<path fill-rule="evenodd"  fill="url(#linear_border_hPc7A8JadofKgXALHvHG7_0)"  d="M334.495 92.8L4.60215 92.8L4.60215 24.4L334.495 24.4L367.621 58.6L334.495 92.8ZM334.876 93.7L3.70215 93.7L3.70215 23.5L334.876 23.5L368.874 58.6L334.876 93.7Z">
</path>
<path d="M1289.7 50.972L1289.7 60.5L1552.55 60.5L1587.52 23.498L1919.87 23.498L1919.87 0.5L1328.21 0.5L1289.7 50.972Z"   fill="url(#linear_fill_gFVRj3EL4EFw9FcY6B3P9)" >
</path>
<path d="M1330.7 38.5L1612.7 38.5L1612.7 20.5L1343.14 20.5L1330.7 38.5Z"   fill="url(#linear_fill_ctyNlQrIWPWkKpBn1oi5G)" >
</path>
<path    stroke="url(#linear_border_E4rLFP4c34sRCLWmm7qrE_0)" stroke-width="3"    d="M1301.7 39.1479L1330.45 1.5L1919.9 1.5">
</path>
<path    stroke="url(#linear_border_lzonpwmvn9ude5P2JuxNx_0)" stroke-width="3"    d="M1292.06 60.5L1555.06 60">
</path>
<path    stroke="rgba(5, 39, 79, 1)" stroke-width="3"    d="M1311.31 49.6919L1378.31 50">
</path>
<path    stroke="rgba(24, 44, 79, 1)" stroke-width="3"    d="M1401.45 49.6919L1457.45 50">
</path>
<path    stroke="url(#linear_border_vIXoCyyg7SOmLXLaTgY10_0)" stroke-width="3"    d="M1481.88 49.6919L1562.88 50">
</path>
<path d="M1360.2 25.9583L1351.2 25.9583L1346.27 34.0001L1355.27 34.0001L1360.2 25.9583Z"   fill="#1561BA" >
</path>
<path d="M1374.63 25.9583L1365.63 25.9583L1360.7 34.0001L1369.7 34.0001L1374.63 25.9583Z"   fill="#1561BA" >
</path>
<path d="M1388.63 25.9583L1379.63 25.9583L1374.7 34.0001L1383.7 34.0001L1388.63 25.9583Z"   fill="#1561BA" >
</path>
<path d="M1402.63 25.9583L1393.63 25.9583L1388.7 34.0001L1397.7 34.0001L1402.63 25.9583Z"   fill="#1561BA" >
</path>
<path     fill="url(#linear_fill_hnPC9kHAUttlluvMfXiXG_0)"  d="M1586.53 23.5L1552.53 58.6L1586.53 93.7L1917.7 93.7L1917.7 23.5L1586.53 23.5Z">
</path>
<path fill-rule="evenodd"  fill="url(#linear_border_hnPC9kHAUttlluvMfXiXG_0)"  d="M1586.53 23.5L1552.53 58.6L1586.53 93.7L1917.7 93.7L1917.7 23.5L1586.53 23.5ZM1916.8 24.4L1586.91 24.4L1553.78 58.6L1586.91 92.8L1916.8 92.8L1916.8 24.4Z">
</path>
<defs>
<linearGradient id="linear_fill_1HaBhzHAIQPxb090_hygp_0" x1="961.2021484375" y1="0.5" x2="961.2021484375" y2="85.59375" gradientUnits="userSpaceOnUse">
<stop offset="0" stop-color="#01527D"  />
<stop offset="0.6288646941489362" stop-color="#112E57"  />
<stop offset="1" stop-color="#0B3A66"  />
</linearGradient>
<linearGradient id="linear_border_1HaBhzHAIQPxb090_hygp_0" x1="961.2021484375" y1="-28.91796875" x2="961.2021484375" y2="94.5" gradientUnits="userSpaceOnUse">
<stop offset="0" stop-color="#6691FF"  />
<stop offset="1" stop-color="#07246E"  />
</linearGradient>
<linearGradient id="linear_fill_E1oHZTFAQIbPPsNHZSpYU" x1="612.25048828125" y1="30.5" x2="1.5302734375" y2="30.5" gradientUnits="userSpaceOnUse">
<stop offset="0" stop-color="#01457D"  />
<stop offset="0.5442096468629298" stop-color="#0089FA" stop-opacity="0.29" />
<stop offset="1" stop-color="#010E7D" stop-opacity="0.2" />
</linearGradient>
<linearGradient id="linear_fill_KzJ8LOa-xXEpjP4HRpM23" x1="555.1884765625" y1="29.5" x2="308.7021484375" y2="29.5" gradientUnits="userSpaceOnUse">
<stop offset="0" stop-color="#18344F"  />
<stop offset="1" stop-color="#182C4E" stop-opacity="0" />
</linearGradient>
<linearGradient id="linear_border_SpwRxF0gHQZU-qaV3ReqQ_0" x1="36.09765625" y1="6.92578125" x2="581.8701171875" y2="14" gradientUnits="userSpaceOnUse">
<stop offset="0" stop-color="#66ADFF"  />
<stop offset="0.5412169394440288" stop-color="#66A6FF" stop-opacity="0.19" />
<stop offset="1" stop-color="#006AFF" stop-opacity="0" />
</linearGradient>
<linearGradient id="linear_border_4TradrjRBJUQs5M3ITR-b_0" x1="481.15869140625" y1="58.21826171875" x2="364.552734375" y2="57.99658203125" gradientUnits="userSpaceOnUse">
<stop offset="0" stop-color="#66A6FF"  />
<stop offset="0.5412169394440288" stop-color="#033666"  />
<stop offset="0.7828200478777347" stop-color="#032C66" stop-opacity="0.94" />
<stop offset="1" stop-color="#033666" stop-opacity="0" />
</linearGradient>
<linearGradient id="linear_border_NDZkd1huxb8lQ2-i4sOBR_0" x1="437.05859375" y1="48.701171875" x2="363.47509765625" y2="49.317138671875" gradientUnits="userSpaceOnUse">
<stop offset="0" stop-color="#184C4F"  />
<stop offset="1" stop-color="#184C4F" stop-opacity="0" />
</linearGradient>
<linearGradient id="linear_fill_hPc7A8JadofKgXALHvHG7_0" x1="14.97412109375" y1="58.60009765625" x2="368.8740234375" y2="58.60009765625" gradientUnits="userSpaceOnUse">
<stop offset="0.0069" stop-color="#0077C7" stop-opacity="0.1" />
<stop offset="0.6032172439662593" stop-color="#0037A6" stop-opacity="0.46" />
<stop offset="1" stop-color="#004278"  />
</linearGradient>
<linearGradient id="linear_border_hPc7A8JadofKgXALHvHG7_0" x1="647.59423828125" y1="67.135009765625" x2="3.7021484375" y2="67.135009765625" gradientUnits="userSpaceOnUse">
<stop offset="0" stop-color="#9ED0FF"  />
<stop offset="1" stop-color="#669EFF" stop-opacity="0" />
</linearGradient>
<linearGradient id="linear_fill_gFVRj3EL4EFw9FcY6B3P9" x1="1309.15380859375" y1="30.5" x2="1919.8740234375" y2="30.5" gradientUnits="userSpaceOnUse">
<stop offset="0" stop-color="#01357D"  />
<stop offset="0.5442096468629298" stop-color="#0089FA" stop-opacity="0.29" />
<stop offset="1" stop-color="#01457D" stop-opacity="0.2" />
</linearGradient>
<linearGradient id="linear_fill_ctyNlQrIWPWkKpBn1oi5G" x1="1366.2158203125" y1="29.5" x2="1612.7021484375" y2="29.5" gradientUnits="userSpaceOnUse">
<stop offset="0" stop-color="#182F4F"  />
<stop offset="1" stop-color="#182C4E" stop-opacity="0" />
</linearGradient>
<linearGradient id="linear_border_E4rLFP4c34sRCLWmm7qrE_0" x1="1336.2998046875" y1="6.92578125" x2="1882.072265625" y2="14" gradientUnits="userSpaceOnUse">
<stop offset="0" stop-color="#66ADFF"  />
<stop offset="0.5412169394440288" stop-color="#66A6FF" stop-opacity="0.19" />
<stop offset="1" stop-color="#006AFF" stop-opacity="0" />
</linearGradient>
<linearGradient id="linear_border_lzonpwmvn9ude5P2JuxNx_0" x1="1440.25341796875" y1="62.21826171875" x2="1556.85888671875" y2="61.99658203125" gradientUnits="userSpaceOnUse">
<stop offset="0" stop-color="#66A6FF"  />
<stop offset="0.5412169394440288" stop-color="#033666"  />
<stop offset="0.7828200478777347" stop-color="#032C66" stop-opacity="0.94" />
<stop offset="1" stop-color="#033666" stop-opacity="0" />
</linearGradient>
<linearGradient id="linear_border_vIXoCyyg7SOmLXLaTgY10_0" x1="1484.33837890625" y1="50.701171875" x2="1557.92431640625" y2="50.645263671875" gradientUnits="userSpaceOnUse">
<stop offset="0" stop-color="#184C4F"  />
<stop offset="1" stop-color="#184C4F" stop-opacity="0" />
</linearGradient>
<linearGradient id="linear_fill_hnPC9kHAUttlluvMfXiXG_0" x1="1906.43017578125" y1="58.60009765625" x2="1552.5302734375" y2="58.60009765625" gradientUnits="userSpaceOnUse">
<stop offset="0" stop-color="#0067C7" stop-opacity="0.1" />
<stop offset="0.6032172439662593" stop-color="#0056A6" stop-opacity="0.46" />
<stop offset="1" stop-color="#004278"  />
</linearGradient>
<linearGradient id="linear_border_hnPC9kHAUttlluvMfXiXG_0" x1="2196.42236328125" y1="67.135009765625" x2="1552.5302734375" y2="67.135009765625" gradientUnits="userSpaceOnUse">
<stop offset="0" stop-color="#9ED0FF"  />
<stop offset="1" stop-color="#669EFF" stop-opacity="0" />
</linearGradient>
</defs>
</svg>
