<?xml version="1.0" encoding="utf-8"?>
<svg version="1.1" xmlns:xlink="http://www.w3.org/1999/xlink" width="43px" height="38px" xmlns="http://www.w3.org/2000/svg">
  <g transform="matrix(1 0 0 1 -610 -811 )">
    <path d="M 42.7264631043257 23.0714285714286  C 42.4893977947413 23.3965773809524  42.1064461407973 23.6015625  41.5776081424936 23.6863839285714  L 37.0095419847328 24.3861607142857  L 42.0973282442748 26.6551339285714  C 42.5167514843087 26.8389136904762  42.7857294317218 27.1110491071429  42.904262086514 27.4715401785714  C 43.0227947413062 27.83203125  42.9635284139101 28.1748511904762  42.7264631043257 28.5  C 42.4711620016964 28.8251488095238  42.1155640373198 29.0336681547619  41.6596692111959 29.1255580357143  C 41.2037743850721 29.2174479166667  40.7661153519932 29.1715029761905  40.3466921119593 28.9877232142857  L 35.2589058524173 26.7399553571429  L 36.763358778626 30.1328125  C 37.0004240882104 30.6700148809524  36.8910093299406 31.1188616071429  36.4351145038168 31.4793526785714  C 35.979219677693 31.83984375  35.4275869380831 31.9847470238095  34.7802162849873 31.9140625  C 34.1328456318914 31.8433779761905  33.6906276505513 31.5465029761905  33.4535623409669 31.0234375  L 30.6634860050891 24.6618303571429  L 23.2506361323155 21.3537946428571  L 23.2506361323155 27.9910714285714  L 28.940203562341 33.0379464285714  C 29.2319762510602 33.2924107142857  29.3869804919423 33.5680803571429  29.4052162849873 33.8649553571429  C 29.4234520780322 34.1618303571429  29.323155216285 34.4198288690476  29.1043256997455 34.6389508928571  C 28.8854961832061 34.8580729166667  28.6256361323155 35.0347842261905  28.3247455470738 35.1690848214286  C 28.0238549618321 35.3033854166667  27.6864927905004 35.3422619047619  27.3126590330789 35.2857142857143  C 26.9388252756573 35.2291666666667  26.6060220525869 35.0736607142857  26.3142493638677 34.8191964285714  L 23.2506361323155 32.1049107142857  L 23.2506361323155 36.6428571428571  C 23.2506361323155 37.0104166666667  23.0773960983885 37.3284970238095  22.7309160305343 37.5970982142857  C 22.3844359626802 37.8656994047619  21.9741306191688 38  21.5 38  C 21.0258693808312 38  20.6155640373198 37.8656994047619  20.2690839694656 37.5970982142857  C 19.9226039016115 37.3284970238095  19.7493638676845 37.0104166666667  19.7493638676845 36.6428571428571  L 19.7493638676845 32.1049107142857  L 16.6857506361323 34.8191964285714  C 16.3939779474131 35.0736607142857  16.0611747243427 35.2291666666667  15.6873409669211 35.2857142857143  C 15.3135072094996 35.3422619047619  14.9761450381679 35.3033854166667  14.6752544529262 35.1690848214286  C 14.3743638676845 35.0347842261905  14.1145038167939 34.8580729166667  13.8956743002545 34.6389508928571  C 13.676844783715 34.4198288690476  13.5765479219678 34.1618303571429  13.5947837150127 33.8649553571429  C 13.6130195080577 33.5680803571429  13.7680237489398 33.2924107142857  14.059796437659 33.0379464285714  L 19.7493638676845 27.9910714285714  L 19.7493638676845 21.3537946428571  L 12.3365139949109 24.6618303571429  L 9.54643765903308 31.0234375  C 9.30937234944869 31.5465029761905  8.86715436810857 31.8433779761905  8.21978371501272 31.9140625  C 7.57241306191688 31.9847470238095  7.02078032230704 31.83984375  6.56488549618321 31.4793526785714  C 6.10899067005937 31.1188616071429  5.99957591178965 30.6700148809524  6.23664122137405 30.1328125  L 7.7410941475827 26.7399553571429  L 2.65330788804071 28.9877232142857  C 2.23388464800679 29.1715029761905  1.79622561492791 29.2174479166667  1.34033078880407 29.1255580357143  C 0.884435962680238 29.0336681547619  0.528837998303647 28.8251488095238  0.2735368956743 28.5  C 0.0364715860899068 28.1748511904762  -0.0227947413061916 27.83203125  0.0957379134860051 27.4715401785714  C 0.214270568278202 27.1110491071429  0.483248515691264 26.8389136904762  0.902671755725191 26.6551339285714  L 5.99045801526718 24.3861607142857  L 1.42239185750636 23.6863839285714  C 0.893553859202714 23.6015625  0.510602205258694 23.3965773809524  0.2735368956743 23.0714285714286  C 0.0364715860899068 22.7462797619048  -0.041030534351145 22.4175967261905  0.041030534351145 22.0853794642857  C 0.123091603053435 21.7531622023809  0.35559796437659 21.4704241071429  0.738549618320611 21.2371651785714  C 1.12150127226463 21.00390625  1.57739609838846 20.9296875  2.10623409669211 21.0145089285714  L 10.5858778625954 22.3292410714286  L 17.998727735369 19  L 10.5858778625954 15.6707589285714  L 2.10623409669211 16.9854910714286  C 2.0332909245123 16.9996279761905  1.9147582697201 17.0066964285714  1.75063613231552 17.0066964285714  C 1.25826972010178 17.0066964285714  0.857082273112808 16.8794642857143  0.5470737913486 16.625  C 0.237065309584394 16.3705357142857  0.0638252756573368 16.0877976190476  0.02735368956743 15.7767857142857  C -0.00911789652247655 15.4657738095238  0.0911789652247668 15.1618303571429  0.32824427480916 14.8649553571429  C 0.565309584393554 14.5680803571429  0.930025445292621 14.3843005952381  1.42239185750636 14.3136160714286  L 5.99045801526718 13.6138392857143  L 0.902671755725191 11.3448660714286  C 0.483248515691264 11.1610863095238  0.214270568278202 10.8889508928571  0.0957379134860051 10.5284598214286  C -0.0227947413061916 10.16796875  0.0364715860899068 9.82514880952381  0.2735368956743 9.5  C 0.510602205258694 9.17485119047619  0.866200169635284 8.96279761904762  1.34033078880407 8.86383928571429  C 1.81446140797286 8.76488095238095  2.25212044105174 8.81436011904762  2.65330788804071 9.01227678571429  L 7.7410941475827 11.2600446428571  L 6.23664122137405 7.8671875  C 5.99957591178965 7.32998511904762  6.10899067005937 6.88113839285714  6.56488549618321 6.52064732142857  C 7.02078032230704 6.16015625  7.57241306191688 6.01525297619047  8.21978371501272 6.0859375  C 8.86715436810857 6.15662202380952  9.30937234944869 6.45349702380952  9.54643765903308 6.9765625  L 12.3365139949109 13.3381696428571  L 19.7493638676845 16.6462053571429  L 19.7493638676845 10.0089285714286  L 14.059796437659 4.96205357142857  C 13.7680237489398 4.70758928571429  13.6130195080577 4.43191964285714  13.5947837150127 4.13504464285714  C 13.5765479219678 3.83816964285714  13.676844783715 3.58017113095238  13.8956743002545 3.36104910714286  C 14.1145038167939 3.14192708333333  14.3743638676845 2.96521577380952  14.6752544529262 2.83091517857143  C 14.9761450381679 2.69661458333333  15.3135072094996 2.65773809523809  15.6873409669211 2.71428571428571  C 16.0611747243427 2.77083333333333  16.3939779474131 2.92633928571429  16.6857506361323 3.18080357142857  L 19.7493638676845 5.89508928571429  L 19.7493638676845 1.35714285714286  C 19.7493638676845 0.989583333333332  19.9226039016115 0.671502976190471  20.2690839694656 0.402901785714287  C 20.6155640373198 0.134300595238098  21.0258693808312 0  21.5 0  C 21.9741306191688 0  22.3844359626802 0.134300595238098  22.7309160305343 0.402901785714287  C 23.0773960983885 0.671502976190471  23.2506361323155 0.989583333333332  23.2506361323155 1.35714285714286  L 23.2506361323155 5.89508928571429  L 26.3142493638677 3.18080357142857  C 26.6060220525869 2.92633928571429  26.9388252756573 2.77083333333333  27.3126590330789 2.71428571428571  C 27.6864927905004 2.65773809523809  28.0238549618321 2.69661458333333  28.3247455470738 2.83091517857143  C 28.6256361323155 2.96521577380952  28.8854961832061 3.14192708333333  29.1043256997455 3.36104910714286  C 29.323155216285 3.58017113095238  29.4234520780322 3.83816964285714  29.4052162849873 4.13504464285714  C 29.3869804919423 4.43191964285714  29.2319762510602 4.70758928571429  28.940203562341 4.96205357142857  L 23.2506361323155 10.0089285714286  L 23.2506361323155 16.6462053571429  L 30.6634860050891 13.3381696428571  L 33.4535623409669 6.9765625  C 33.6906276505513 6.45349702380952  34.1328456318914 6.15662202380952  34.7802162849873 6.0859375  C 35.4275869380831 6.01525297619047  35.979219677693 6.16015625  36.4351145038168 6.52064732142857  C 36.8910093299406 6.88113839285714  37.0004240882104 7.32998511904762  36.763358778626 7.8671875  L 35.2589058524173 11.2600446428571  L 40.3466921119593 9.01227678571429  C 40.7661153519932 8.82849702380952  41.2037743850721 8.78255208333333  41.6596692111959 8.87444196428571  C 42.1155640373198 8.96633184523809  42.4711620016964 9.17485119047619  42.7264631043257 9.5  C 42.9635284139101 9.82514880952381  43.0227947413062 10.16796875  42.904262086514 10.5284598214286  C 42.7857294317218 10.8889508928571  42.5167514843087 11.1610863095238  42.0973282442748 11.3448660714286  L 37.0095419847328 13.6138392857143  L 41.5776081424936 14.3136160714286  C 42.0699745547074 14.3843005952381  42.4346904156065 14.5680803571429  42.6717557251908 14.8649553571429  C 42.9088210347752 15.1618303571429  43.0091178965225 15.4657738095238  42.9726463104326 15.7767857142857  C 42.9361747243427 16.0877976190476  42.7629346904156 16.3705357142857  42.4529262086514 16.625  C 42.1429177268872 16.8794642857143  41.7417302798982 17.0066964285714  41.2493638676845 17.0066964285714  C 41.0852417302799 17.0066964285714  40.9667090754877 16.9996279761905  40.8937659033079 16.9854910714286  L 32.4141221374046 15.6707589285714  L 25.001272264631 19  L 32.4141221374046 22.3292410714286  L 40.8937659033079 21.0145089285714  C 41.4226039016115 20.9296875  41.8784987277354 21.00390625  42.2614503816794 21.2371651785714  C 42.6444020356234 21.4704241071429  42.8769083969466 21.7531622023809  42.9589694656489 22.0853794642857  C 43.0410305343511 22.4175967261905  42.9635284139101 22.7462797619048  42.7264631043257 23.0714285714286  Z " fill-rule="nonzero" fill="#3272e7" stroke="none" transform="matrix(1 0 0 1 610 811 )" />
  </g>
</svg>