<?xml version="1.0" encoding="utf-8"?>
<svg version="1.1" xmlns:xlink="http://www.w3.org/1999/xlink" width="45px" height="41px" xmlns="http://www.w3.org/2000/svg">
  <g transform="matrix(1 0 0 1 -675 -808 )">
    <path d="M 36.4768735362998 25.6049692908989  C 37.2760538641686 23.9796203238414  37.675644028103 22.2741485203797  37.675644028103 20.4885538805137  C 37.675644028103 18.7029592406477  37.2760538641686 16.9974874371859  36.4768735362998 15.3721384701284  C 35.6776932084309 13.7467895030709  34.5974824355972 12.3427321794156  33.2362412177986 11.1599664991625  C 31.875 9.97720081890936  30.259074941452 9.03861902103108  28.3884660421546 8.34422110552764  C 26.5178571428571 7.64982319002419  24.5550351288056 7.30262423227247  22.5 7.30262423227247  C 20.4449648711944 7.30262423227247  18.4821428571429 7.64982319002419  16.6115339578454 8.34422110552764  C 14.740925058548 9.03861902103108  13.125 9.97720081890936  11.7637587822014 11.1599664991625  C 10.4025175644028 12.3427321794156  9.32230679156909 13.7467895030709  8.52312646370023 15.3721384701284  C 7.72394613583138 16.9974874371859  7.32435597189695 18.7029592406477  7.32435597189695 20.4885538805137  C 7.32435597189695 22.2741485203797  7.72394613583138 23.9796203238414  8.52312646370023 25.6049692908989  C 9.32230679156909 27.2303182579564  10.4025175644028 28.6343755816118  11.7637587822014 29.8171412618649  C 13.125 30.999906942118  14.740925058548 31.9384887399963  16.6115339578454 32.6328866554997  C 18.4821428571429 33.3272845710032  20.4449648711944 33.6744835287549  22.5 33.6744835287549  C 24.5550351288056 33.6744835287549  26.5178571428571 33.3272845710032  28.3884660421546 32.6328866554997  C 30.259074941452 31.9384887399963  31.875 30.999906942118  33.2362412177986 29.8171412618649  C 34.5974824355972 28.6343755816118  35.6776932084309 27.2303182579564  36.4768735362998 25.6049692908989  Z M 44.8419203747073 26.1658291457286  C 45 26.3489670575098  45.0351288056206 26.570258700912  44.9473067915691 26.8297040759352  C 44.8770491803279 27.0586264656616  44.7014051522248 27.2112413921459  44.42037470726 27.2875488553881  L 36.7271662763466 29.4852037967616  L 36.7271662763466 36.4902289223897  C 36.7271662763466 36.7344128047646  36.6129976580796 36.9328122091941  36.3846604215457 37.0854271356784  C 36.1211943793911 37.2380420621627  35.8665105386417 37.2685650474595  35.6206088992974 37.176996091569  L 27.9274004683841 35.0251256281407  L 23.1850117096019 40.7024008933557  C 23.0093676814988 40.9008002977852  22.7810304449649 41  22.5 41  C 22.2189695550351 41  21.9906323185012 40.9008002977852  21.8149882903981 40.7024008933557  L 17.0725995316159 35.0251256281407  L 9.37939110070258 37.176996091569  C 9.13348946135831 37.2685650474595  8.8788056206089 37.2380420621627  8.61533957845433 37.0854271356784  C 8.38700234192038 36.9328122091941  8.2728337236534 36.7344128047646  8.2728337236534 36.4902289223897  L 8.2728337236534 29.4852037967616  L 0.579625292740047 27.2875488553881  C 0.298594847775176 27.2112413921459  0.122950819672131 27.0586264656616  0.0526932084309134 26.8297040759352  C -0.0351288056206088 26.570258700912  0 26.3489670575098  0.15807962529274 26.1658291457286  L 4.90046838407494 20.4885538805137  L 0.15807962529274 14.8112786152987  C 0 14.6128792108692  -0.0351288056206088 14.391587567467  0.0526932084309134 14.1474036850921  C 0.122950819672131 13.9184812953657  0.298594847775176 13.7658663688814  0.579625292740047 13.6895589056393  L 8.2728337236534 11.4919039642658  L 8.2728337236534 4.48687883863763  C 8.2728337236534 4.24269495626279  8.38700234192038 4.04429555183324  8.61533957845433 3.89168062534897  C 8.8788056206089 3.73906569886469  9.13348946135831 3.70854271356784  9.37939110070258 3.8001116694584  L 17.0725995316159 5.95198213288665  L 21.8149882903981 0.27470686767169  C 21.9730679156909 0.0915689558905618  22.2014051522248 0  22.5 0  C 22.7985948477752 0  23.0269320843091 0.0915689558905618  23.1850117096019 0.27470686767169  L 27.9274004683841 5.95198213288665  L 35.6206088992974 3.8001116694584  C 35.8665105386417 3.70854271356784  36.1211943793911 3.73906569886469  36.3846604215457 3.89168062534897  C 36.6129976580796 4.04429555183324  36.7271662763466 4.24269495626279  36.7271662763466 4.48687883863763  L 36.7271662763466 11.4919039642658  L 44.42037470726 13.6895589056393  C 44.7014051522248 13.7658663688814  44.8770491803279 13.9184812953657  44.9473067915691 14.1474036850921  C 45.0351288056206 14.391587567467  45 14.6128792108692  44.8419203747073 14.8112786152987  L 40.0995316159251 20.4885538805137  L 44.8419203747073 26.1658291457286  Z " fill-rule="nonzero" fill="#ff4200" stroke="none" transform="matrix(1 0 0 1 675 808 )" />
  </g>
</svg>