<?xml version="1.0" encoding="utf-8"?>
<svg version="1.1" xmlns:xlink="http://www.w3.org/1999/xlink" width="20px" height="33px" xmlns="http://www.w3.org/2000/svg">
  <g transform="matrix(1 0 0 1 -1262 -812 )">
    <path d="M 11.81640625 22.7243303571429  C 12.2721354166667 23.3381696428571  12.5 24.0133928571429  12.5 24.75  C 12.5 25.7321428571429  12.1354166666667 26.5669642857143  11.40625 27.2544642857143  C 10.6770833333333 27.9419642857143  9.79166666666667 28.2857142857143  8.75 28.2857142857143  C 7.70833333333333 28.2857142857143  6.82291666666667 27.9419642857143  6.09375 27.2544642857143  C 5.36458333333333 26.5669642857143  5 25.7321428571429  5 24.75  C 5 24.0133928571429  5.22786458333333 23.3381696428571  5.68359375 22.7243303571429  C 6.13932291666667 22.1104910714286  6.74479166666667 21.6746651785714  7.5 21.4168526785714  L 7.5 4.71428571428572  L 10 4.71428571428572  L 10 21.4168526785714  C 10.7552083333333 21.6746651785714  11.3606770833333 22.1104910714286  11.81640625 22.7243303571429  Z M 13.173828125 28.9210379464286  C 14.3912760416667 27.7731584821429  15 26.3828125  15 24.75  C 15 23.8046875  14.7786458333333 22.9207589285714  14.3359375 22.0982142857143  C 13.8932291666667 21.2756696428571  13.28125 20.5881696428571  12.5 20.0357142857143  L 12.5 5.89285714285714  C 12.5 4.91071428571428  12.1354166666667 4.07589285714286  11.40625 3.38839285714286  C 10.6770833333333 2.70089285714286  9.79166666666667 2.35714285714286  8.75 2.35714285714286  C 7.70833333333333 2.35714285714286  6.82291666666667 2.70089285714286  6.09375 3.38839285714286  C 5.36458333333333 4.07589285714286  5 4.91071428571428  5 5.89285714285714  L 5 20.0357142857143  C 4.21875 20.5881696428571  3.60677083333333 21.2756696428571  3.1640625 22.0982142857143  C 2.72135416666667 22.9207589285714  2.5 23.8046875  2.5 24.75  C 2.5 26.3828125  3.10872395833333 27.7731584821429  4.326171875 28.9210379464286  C 5.54361979166667 30.0689174107143  7.01822916666667 30.6428571428571  8.75 30.6428571428571  C 10.4817708333333 30.6428571428571  11.9563802083333 30.0689174107143  13.173828125 28.9210379464286  Z M 15 18.9860491071429  C 16.6666666666667 20.5943080357143  17.5 22.515625  17.5 24.75  C 17.5 27.0212053571429  16.6438802083333 28.9640066964286  14.931640625 30.5784040178571  C 13.2194010416667 32.1928013392857  11.1588541666667 33  8.75 33  C 6.34114583333333 33  4.28059895833333 32.1928013392857  2.568359375 30.5784040178571  C 0.856119791666667 28.9640066964286  0 27.0212053571429  0 24.75  C 0 22.515625  0.833333333333333 20.5943080357143  2.5 18.9860491071429  L 2.5 5.89285714285714  C 2.5 4.26004464285714  3.10872395833333 2.86969866071429  4.326171875 1.72181919642857  C 5.54361979166667 0.573939732142859  7.01822916666667 0  8.75 0  C 10.4817708333333 0  11.9563802083333 0.573939732142859  13.173828125 1.72181919642857  C 14.3912760416667 2.86969866071429  15 4.26004464285714  15 5.89285714285714  L 15 18.9860491071429  Z M 16.25 14.1428571428571  L 20 14.1428571428571  L 20 16.5  L 16.25 16.5  L 16.25 14.1428571428571  Z M 16.25 9.42857142857143  L 20 9.42857142857143  L 20 11.7857142857143  L 16.25 11.7857142857143  L 16.25 9.42857142857143  Z M 16.25 4.71428571428572  L 20 4.71428571428572  L 20 7.07142857142857  L 16.25 7.07142857142857  L 16.25 4.71428571428572  Z " fill-rule="nonzero" fill="#3272e7" stroke="none" transform="matrix(1 0 0 1 1262 812 )" />
  </g>
</svg>