<?xml version="1.0" encoding="utf-8"?>
<svg version="1.1" xmlns:xlink="http://www.w3.org/1999/xlink" width="16px" height="13px" xmlns="http://www.w3.org/2000/svg">
  <g transform="matrix(1 0 0 1 -1364 -812 )">
    <path d="M 15.6818181818182 4.98579545454546  C 15.8939393939394 5.15814393939394  16 5.36742424242424  16 5.61363636363636  L 16 7.38636363636364  C 16 7.63257575757576  15.8939393939394 7.84185606060606  15.6818181818182 8.01420454545455  C 15.469696969697 8.18655303030303  15.2121212121212 8.27272727272727  14.9090909090909 8.27272727272727  L 10.1818181818182 8.27272727272727  L 10.1818181818182 12.1136363636364  C 10.1818181818182 12.3598484848485  10.0757575757576 12.5691287878788  9.86363636363636 12.7414772727273  C 9.65151515151515 12.9138257575758  9.39393939393939 13  9.09090909090909 13  L 6.90909090909091 13  C 6.60606060606061 13  6.34848484848485 12.9138257575758  6.13636363636364 12.7414772727273  C 5.92424242424242 12.5691287878788  5.81818181818182 12.3598484848485  5.81818181818182 12.1136363636364  L 5.81818181818182 8.27272727272727  L 1.09090909090909 8.27272727272727  C 0.787878787878788 8.27272727272727  0.53030303030303 8.18655303030303  0.318181818181818 8.01420454545455  C 0.106060606060606 7.84185606060606  0 7.63257575757576  0 7.38636363636364  L 0 5.61363636363636  C 0 5.36742424242424  0.106060606060606 5.15814393939394  0.318181818181818 4.98579545454546  C 0.53030303030303 4.81344696969697  0.787878787878788 4.72727272727273  1.09090909090909 4.72727272727273  L 5.81818181818182 4.72727272727273  L 5.81818181818182 0.886363636363637  C 5.81818181818182 0.640151515151515  5.92424242424242 0.430871212121211  6.13636363636364 0.258522727272727  C 6.34848484848485 0.086174242424242  6.60606060606061 0  6.90909090909091 0  L 9.09090909090909 0  C 9.39393939393939 0  9.65151515151515 0.086174242424242  9.86363636363636 0.258522727272727  C 10.0757575757576 0.430871212121211  10.1818181818182 0.640151515151515  10.1818181818182 0.886363636363637  L 10.1818181818182 4.72727272727273  L 14.9090909090909 4.72727272727273  C 15.2121212121212 4.72727272727273  15.469696969697 4.81344696969697  15.6818181818182 4.98579545454546  Z " fill-rule="nonzero" fill="#3272e7" stroke="none" transform="matrix(1 0 0 1 1364 812 )" />
  </g>
</svg>