<?xml version="1.0" encoding="utf-8"?>
<svg version="1.1" xmlns:xlink="http://www.w3.org/1999/xlink" width="42px" height="39px" xmlns="http://www.w3.org/2000/svg">
  <g transform="matrix(1 0 0 1 -695 -750 )">
    <path d="M 39.798828125 12.9609375  C 41.2662760416667 15.4765625  42 18.15625  42 21  C 42 23.4375  41.4440104166667 25.765625  40.33203125 27.984375  C 39.2200520833333 30.203125  37.7252604166667 32.1171875  35.84765625 33.7265625  C 33.9700520833333 35.3359375  31.7369791666667 36.6171875  29.1484375 37.5703125  C 26.5598958333333 38.5234375  23.84375 39  21 39  C 18.15625 39  15.4401041666667 38.5234375  12.8515625 37.5703125  C 10.2630208333333 36.6171875  8.02994791666667 35.3359375  6.15234375 33.7265625  C 4.27473958333333 32.1171875  2.77994791666667 30.203125  1.66796875 27.984375  C 0.555989583333333 25.765625  0 23.4375  0 21  C 0 18.15625  0.733723958333333 15.4765625  2.201171875 12.9609375  C 3.66861979166667 10.4453125  5.73307291666667 8.3359375  8.39453125 6.6328125  C 9.17838541666667 6.13281249999999  10.048828125 5.9375  11.005859375 6.046875  C 11.962890625 6.15625  12.7239583333333 6.546875  13.2890625 7.21875  C 13.8723958333333 7.875  14.095703125 8.61328125  13.958984375 9.43359375  C 13.822265625 10.25390625  13.37109375 10.9140625  12.60546875 11.4140625  C 10.8190104166667 12.5703125  9.43815104166667 13.984375  8.462890625 15.65625  C 7.48763020833333 17.328125  7 19.109375  7 21  C 7 22.625  7.369140625 24.17578125  8.107421875 25.65234375  C 8.845703125 27.12890625  9.84375 28.40625  11.1015625 29.484375  C 12.359375 30.5625  13.849609375 31.41796875  15.572265625 32.05078125  C 17.294921875 32.68359375  19.1041666666667 33  21 33  C 22.8958333333333 33  24.705078125 32.68359375  26.427734375 32.05078125  C 28.150390625 31.41796875  29.640625 30.5625  30.8984375 29.484375  C 32.15625 28.40625  33.154296875 27.12890625  33.892578125 25.65234375  C 34.630859375 24.17578125  35 22.625  35 21  C 35 19.109375  34.5123697916667 17.328125  33.537109375 15.65625  C 32.5618489583333 13.984375  31.1809895833333 12.5703125  29.39453125 11.4140625  C 28.62890625 10.9140625  28.177734375 10.25390625  28.041015625 9.43359375  C 27.904296875 8.61328125  28.1276041666667 7.875  28.7109375 7.21875  C 29.2760416666667 6.546875  30.0416666666667 6.15625  31.0078125 6.046875  C 31.9739583333333 5.9375  32.83984375 6.13281249999999  33.60546875 6.6328125  C 36.2669270833333 8.3359375  38.3313802083333 10.4453125  39.798828125 12.9609375  Z M 23.4609375 0.890624999999999  C 24.1536458333333 1.484375  24.5 2.1875  24 3  L 24 18  C 24.5 18.8125  24.1536458333333 19.515625  23.4609375 20.109375  C 22.7682291666667 20.703125  21.9479166666667 21  21 21  C 20.0520833333333 21  19.2317708333333 20.703125  18.5390625 20.109375  C 17.8463541666667 19.515625  17.5 18.8125  18 18  L 18 3  C 17.5 2.1875  17.8463541666667 1.484375  18.5390625 0.890624999999999  C 19.2317708333333 0.296875000000001  20.0520833333333 0  21 0  C 21.9479166666667 0  22.7682291666667 0.296875000000001  23.4609375 0.890624999999999  Z " fill-rule="nonzero" fill="#b3b3b3" stroke="none" transform="matrix(1 0 0 1 695 750 )" />
  </g>
</svg>